 http://lookpic.com/c1/i2/2560/nS5CV3Ln.jpeg

IMDB
 
http://www.imdb.com/title/tt1712578/

Plot

Set in the Channel Islands on the eve of D Day,two Kiwi commandos, sent to destroy German gun emplacements to distract Hitler's forces away from Normandy, discover a Nazi occult plot to unleash demonic forces to win the war.

File Details

Cast overview:
Craig Hall Craig Hall ...
Captain Ben Grogan
Matthew Sunderland Matthew Sunderland ...
Col Klaus Meyer
Gina Varela Gina Varela ...
Helena
Karlos Drinkwater Karlos Drinkwater ...
Sergeant Joe Tane
Luke Hawker Luke Hawker ...
Private Muller
Jessica Grace Smith Jessica Grace Smith ...
Nicole
Nick Dunbar Nick Dunbar ...
Kreigsmarine #1
Jonathan King Jonathan King ...
Dead German
Hadyn Green Hadyn Green ...
Dead German
Geraldine Brophy Geraldine Brophy ...
Voice of Demon

Action | Drama | Fantasy | Horror | Thriller | War

Country:
New Zealand
Language:
English
Release Date:
8 July 2011

83 mins

omplete name                    : G:\The Devil´s Rock DVDRip 2011 TiCTaC\The Devil´s Rock DVDRip 2011 TiCTaC.avi
Format                           : AVI
Format/Info                      : Audio Video Interleave
File size                        : 976 MiB
Duration                         : 1h 23mn
Overal bit rate                  : 1642 Kbps
Writing application              : Lavf52.13.0
Writing library                  : VirtualDub build 32842/release

Video
Format                           : MPEG-4 Visual
Format profile                   : Simple@L1
Format settings, BVOP            : No
Format settings, QPel            : No
Format settings, GMC             : No warppoints
Format settings, Matrix          : Default
Codec ID                         : XVID
Codec ID/Hint                    : XviD
Duration                         : 1h 23mn
Bit rate                         : 1437 Kbps
Width                            : 720 pixels
Height                           : 432 pixels
Display aspect ratio             : 16/9
Frame rate                       : 25.000 fps
Resolution                       : 8 bits
Colorimetry                      : 4:2:0
Scan type                        : Progressive
Bits/(Pixel*Frame)               : 0.185
Stream size                      : 854 MiB
Writing library                  : Lavc51.54.0

Audio
Format                           : MPEG Audio
Format version                   : Version 1
Format profile                   : Layer 3
Codec ID                         : 55
Codec ID/Hint                    : MP3
Duration                         : 1h 23mn
Bit rate mode                    : Constant
Bit rate                         : 192 Kbps
Channel(s)                       : 2 channels
Sampling rate                    : 44.1 KHz
Resolution                       : 16 bits
Stream size                      : 114 MiB
Writing library                  : LAME3.98 (beta)